<?xml version="1.0" standalone="no"?>
<!DOCTYPE svg PUBLIC "-//W3C//DTD SVG 20010904//EN"
 "http://www.w3.org/TR/2001/REC-SVG-20010904/DTD/svg10.dtd">
<svg version="1.0" xmlns="http://www.w3.org/2000/svg"
 width="512.000000pt" height="512.000000pt" viewBox="0 0 512.000000 512.000000"
 preserveAspectRatio="xMidYMid meet">
<metadata>
Created by potrace 1.14, written by Peter Selinger 2001-2017
</metadata>
<g transform="translate(0.000000,512.000000) scale(0.100000,-0.100000)"
fill="#000000" stroke="none">
<path d="M4730 4998 c-63 -65 -123 -123 -133 -128 -12 -8 -35 -8 -75 -1 -31 6
-73 13 -92 16 -19 4 -91 6 -160 6 -222 1 -371 -47 -488 -155 -129 -118 -234
-329 -246 -492 -3 -34 -11 -53 -33 -77 -49 -52 -144 -154 -196 -210 -60 -64
-150 -198 -178 -263 -11 -27 -26 -62 -34 -79 -31 -73 -61 -249 -59 -345 3
-160 25 -262 86 -405 59 -137 109 -197 429 -520 205 -207 313 -323 324 -348
25 -61 2 -137 -56 -178 -39 -27 -116 -37 -152 -18 -14 8 -441 427 -949 931
-507 505 -943 932 -968 951 -93 68 -162 104 -273 143 -102 35 -218 51 -341 48
-423 -11 -789 -319 -881 -738 -19 -85 -24 -253 -11 -346 20 -140 103 -328 193
-438 21 -26 157 -168 303 -315 146 -148 336 -341 423 -430 87 -89 251 -255
363 -369 130 -131 210 -220 220 -244 40 -95 -27 -196 -130 -196 -24 0 -56 6
-70 14 -14 7 -126 113 -248 234 -123 122 -248 241 -279 266 -144 115 -351 162
-537 121 -119 -26 -221 -84 -328 -187 l-95 -91 468 -466 c257 -256 486 -479
508 -496 110 -82 271 -153 402 -177 77 -14 295 -15 358 -2 333 70 605 306 711
619 84 246 60 536 -62 756 -64 115 -119 176 -519 579 -699 705 -857 867 -876
897 -38 61 -13 162 51 199 36 20 90 23 135 6 18 -7 390 -370 940 -920 501
-500 930 -925 955 -946 175 -144 419 -224 639 -211 98 6 125 10 196 28 366 93
658 418 711 794 23 160 -9 379 -76 523 -63 136 -117 200 -424 509 -165 166
-306 314 -315 330 -22 41 -20 141 3 178 11 17 65 76 120 133 90 91 104 102
136 102 136 0 293 51 422 136 165 110 255 247 285 433 13 78 6 330 -10 411
l-15 75 131 133 132 132 -95 95 c-52 53 -102 99 -110 103 -11 6 -45 -22 -130
-110z"/>
</g>
</svg>
